<svg viewBox="0 0 1705 409"><g id="Слой_x0020_1"><g id="_2017407462960"><path d="M14 355H1v-6h20v37h13v6H0v-6h14v-31zm3-24s1 1 2 1 1 1 2 1c0 1 1 1 1 2v4c0 1-1 2-1 2l-2 2h-5c0-1-1-1-2-2 0 0-1-1-1-2v-4c0-1 1-1 1-2 1 0 2-1 2-1 1 0 2-1 3-1zm30 18h7v7c1-1 2-3 3-4 2-1 3-1 4-2s2-1 3-1 3-1 4-1c4 0 8 2 10 4 2 3 3 7 3 12v28h-7v-27c0-4-1-6-2-8-1-1-3-2-6-2h-2c-1 0-2 1-3 2-1 0-2 1-3 2s-2 3-4 5v28h-7v-43zm82 42c-2 0-4 1-5 1h-6c-5 0-9-1-12-3-2-3-4-6-4-11v-23H91v-6h11v-11l8-2v13h19v6h-19v22c0 3 1 5 2 7 2 1 4 2 7 2h5c1 0 3-1 5-1v6zm49-23v5h-30c0 4 1 7 4 10 2 2 6 3 10 3h7c2 0 3-1 4-1s2 0 3-1v7c-2 0-5 1-7 1h-8c-4 0-7 0-9-1-3-1-5-2-7-4-1-2-3-5-3-7-1-3-2-6-2-9s1-6 2-9c0-3 2-5 3-7 2-2 4-4 6-5 3-1 6-2 9-2s5 1 7 2c3 1 5 2 6 4 2 2 3 4 4 6s1 5 1 8zm-8-1v-5c-1-2-1-3-2-4s-2-2-4-3c-1 0-3-1-5-1-1 0-3 1-4 1-1 1-3 2-4 3s-1 2-2 4c0 2-1 3-1 5h22zm21-18h7v8c3-3 5-5 8-6 2-2 5-3 7-3 5 0 8 2 10 5s3 7 3 12h-7c0-3-1-6-2-8-1-1-3-2-5-2h-3c-1 1-2 1-3 2l-3 3c-2 1-3 3-4 4v28h-8v-43zm74 43l-1-6c-2 2-4 4-7 5-2 1-5 1-7 1-3 0-5 0-6-1-2 0-4-1-5-2s-2-2-2-4c-1-1-1-3-1-5 0-4 2-7 5-10 3-2 8-3 14-3h9v-4c0-3-1-5-3-6-1-2-4-2-7-2-2 0-5 0-7 1-2 0-5 1-7 2v-7c1 0 2 0 3-1 1 0 2 0 3-1h4c2 0 3-1 5-1s4 1 6 1l6 3c1 1 2 3 3 4 1 2 1 4 1 6v30h-6zm-1-20h-10c-1 0-3 1-4 1-2 0-3 1-4 1 0 1-1 2-1 3-1 1-1 2-1 3v2c1 1 1 2 2 2 0 1 1 1 2 2h3c2 0 4 0 6-1s4-3 7-5v-8zm54 18c-2 1-4 1-6 2h-6c-7 0-12-2-16-5-3-4-5-9-5-16 0-3 0-7 1-9 1-3 3-5 5-7s4-4 6-5c3-1 6-1 9-1h6c2 0 4 1 6 2v7c-2-1-4-2-6-2-2-1-4-1-6-1s-3 0-5 1-3 2-4 3c-2 1-3 3-3 5-1 2-2 4-2 7 0 5 2 9 4 11 3 3 6 4 11 4 2 0 3 0 5-1 2 0 4-1 6-2v7zm49 1c-2 0-4 1-6 1h-5c-5 0-9-1-12-3-3-3-4-6-4-11v-23h-12v-6h12v-11l8-2v13h19v6h-19v22c0 3 0 5 2 7 2 1 4 2 7 2h4c2 0 4-1 6-1v6zm27-36h-12v-6h20v37h12v6h-34v-6h14v-31zm3-24c1 0 2 1 2 1 1 0 2 1 2 1 1 1 1 1 1 2 1 1 1 1 1 2s0 2-1 2c0 1 0 2-1 2 0 1-1 1-2 2h-4c-1-1-2-1-2-2-1 0-1-1-1-2-1 0-1-1-1-2s0-1 1-2c0-1 0-1 1-2 0 0 1-1 2-1 0 0 1-1 2-1zm27 18h8l10 28 3 7 2-7 10-28h8l-16 43h-9l-16-43zm87 19v5h-30c0 4 1 7 4 10 2 2 5 3 10 3h7c1 0 3-1 4-1s2 0 3-1v7c-2 0-5 1-7 1h-8c-4 0-7 0-9-1-3-1-5-2-7-4s-3-5-4-7c0-3-1-6-1-9s1-6 1-9c1-3 3-5 4-7 2-2 4-4 6-5 3-1 5-2 8-2s6 1 8 2c3 1 5 2 6 4 2 2 3 4 4 6 0 2 1 5 1 8zm-8-1v-5c-1-2-1-3-2-4s-3-2-4-3c-1 0-3-1-5-1-1 0-3 1-4 1-2 1-3 2-4 3s-1 2-2 4-1 3-1 5h22zm82-29h-13v-6h20v54h13v6h-34v-6h14v-48zm60 54v-6c-3 2-5 4-7 5-3 1-5 1-8 1-2 0-4 0-6-1-2 0-3-1-4-2s-2-2-3-4v-5c0-4 1-7 4-10 3-2 8-3 14-3h9v-4c0-3-1-5-2-6-2-2-4-2-8-2-2 0-4 0-7 1-2 0-4 1-7 2v-7c1 0 2 0 3-1 1 0 3 0 4-1h4c1 0 3-1 4-1 3 0 5 1 7 1 2 1 4 2 5 3 2 1 3 3 3 4 1 2 1 4 1 6v30h-6zm-1-20h-9c-2 0-4 1-5 1s-2 1-3 1c-1 1-2 2-2 3s-1 2-1 3 0 2 1 2c0 1 0 2 1 2 0 1 1 1 2 2h3c2 0 4 0 6-1s5-3 7-5v-8zm57-2c0 3 0 6-1 9s-2 5-4 7-4 4-7 5c-2 1-5 1-8 1s-5 0-8-1c-3 0-5-1-8-2v-57h8v16l-1 8c2-3 5-5 7-6s5-2 8-2c2 0 4 1 6 2s4 2 5 4 2 4 3 7v9zm-7 0c0-2 0-4-1-6 0-2 0-4-1-5l-3-3c-1-1-2-1-4-1h-3c-1 1-2 1-3 2-1 0-2 1-3 3-1 1-2 2-3 4v20c1 1 2 1 4 2h4c2 0 4 0 5-1 2 0 3-1 4-2 1-2 2-3 3-5s1-5 1-8zm56 0c0 3-1 6-2 9s-2 5-4 7c-1 2-4 4-6 5-3 1-5 1-9 1-3 0-5 0-8-1-2-1-4-2-6-4s-3-4-4-7-1-6-1-9c0-4 0-7 1-9 1-3 3-5 4-7 2-2 4-4 7-5 2-1 5-2 8-2s6 1 8 2c3 1 5 2 7 4 1 2 2 4 3 7s2 6 2 9zm-8 0c0-2 0-4-1-6 0-2-1-4-2-5-1-2-3-3-4-3-2-1-3-1-5-1s-4 0-6 1c-1 1-3 2-4 3-1 2-1 4-2 5 0 2-1 4-1 6 0 3 1 5 1 7 1 2 2 4 3 5 1 2 2 3 4 3 1 1 3 1 5 1s4 0 5-1c2-1 3-2 4-4 1-1 2-3 2-5 1-1 1-3 1-6zm20-21h7v8c2-3 5-5 7-6 3-2 5-3 8-3 4 0 7 2 10 5 2 3 3 7 3 12h-8c1-3 0-6-1-8-1-1-3-2-5-2h-3c-1 1-2 1-3 2s-3 2-4 3-2 3-4 4v28h-7v-43zm73 43v-6c-2 2-5 4-7 5s-5 1-8 1c-2 0-4 0-6-1-1 0-3-1-4-2s-2-2-2-4c-1-1-1-3-1-5 0-4 1-7 5-10 3-2 7-3 14-3h8v-4c0-3 0-5-2-6-2-2-4-2-7-2s-5 0-7 1c-3 0-5 1-8 2v-7c1 0 2 0 3-1 2 0 3 0 4-1h4c1 0 3-1 4-1 3 0 5 1 7 1 2 1 4 2 5 3 2 1 3 3 4 4 0 2 1 4 1 6v30h-7zm-1-20h-9c-2 0-3 1-5 1-1 0-2 1-3 1-1 1-1 2-2 3v5c0 1 1 2 1 2l2 2h4c1 0 3 0 5-1 3-1 5-3 7-5v-8zm56 19c-2 0-4 1-6 1h-5c-5 0-9-1-12-3-2-3-4-6-4-11v-23h-12v-6h12v-11l8-2v13h19v6h-19v22c0 3 0 5 2 7 2 1 4 2 7 2h5c1 0 3-1 5-1v6zm50-21c0 3-1 6-1 9-1 3-3 5-4 7-2 2-4 4-7 5-2 1-5 1-8 1s-6 0-9-1c-2-1-4-2-6-4-1-2-3-4-4-7 0-3-1-6-1-9 0-4 1-7 2-9 0-3 2-5 4-7 1-2 3-4 6-5 2-1 5-2 8-2s6 1 9 2c2 1 4 2 6 4 1 2 3 4 4 7 0 3 1 6 1 9zm-8 0v-6c-1-2-2-4-3-5-1-2-2-3-4-3-1-1-3-1-5-1s-4 0-6 1l-3 3c-1 2-2 4-3 5v6c0 3 0 5 1 7 0 2 1 4 2 5 1 2 2 3 4 3 1 1 3 1 5 1s4 0 6-1c1-1 2-2 3-4 2-1 2-3 3-5v-6zm20-21h7v8c3-3 5-5 8-6 2-2 5-3 7-3 4 0 8 2 10 5s3 7 3 12h-7c0-3-1-6-2-8-1-1-3-2-5-2h-3c-1 1-2 1-3 2l-3 3c-2 1-3 3-4 4v28h-8v-43zm84 0l-15 38c-1 4-3 7-4 10-2 3-4 5-6 7-1 2-3 3-6 4-2 1-4 1-7 1h-4v-7s1 1 2 1h2c2 0 3 0 4-1 1 0 2-1 3-2l3-3c1-2 2-3 3-5l-17-43h8l11 28 2 7 3-7 10-28h8zM0 179c0-17 2-31 7-44 4-13 11-23 19-32s18-16 30-20c11-5 24-7 38-7 6 0 12 1 18 1 6 1 12 2 18 4V0h33v271h-30l-1-37c-9 14-19 24-30 31-11 6-23 9-35 9-11 0-21-2-29-7-9-4-16-11-21-19-6-8-10-18-13-30s-4-25-4-39zm34-3c0 24 4 41 10 53 7 11 17 17 29 17 9 0 18-4 27-12 10-7 20-18 30-33v-90c-6-2-12-4-18-5-7-2-14-2-20-2-18 0-32 5-43 17-10 12-15 30-15 55zm315 95v-26c-11 10-22 18-32 22-11 5-23 7-34 7s-21-1-29-4c-7-3-14-7-19-12-5-4-9-10-11-17s-4-14-4-21c0-20 8-35 22-46s36-16 64-16h40v-17c0-12-4-21-11-28-8-6-19-10-34-10-10 0-21 1-32 4-10 2-21 6-32 10V87c4-1 8-3 14-4 5-2 10-3 16-4l18-3c6-1 13-1 19-1 12 0 22 1 31 4 10 2 18 6 24 11 6 6 11 12 15 20 3 8 5 17 5 28v133h-30zm-3-88h-43c-8 0-15 1-21 3-6 1-11 4-15 7s-7 7-8 11c-2 4-3 9-3 14 0 4 0 8 1 11l6 9c3 3 6 5 10 6 4 2 9 2 15 2 8 0 16-2 26-7 10-4 21-12 32-22v-34zm250 85c-7 2-15 3-23 4s-16 2-25 2c-24 0-42-6-53-17-12-11-18-28-18-50V106h-54V78h54V26l33-9v61h86v28h-86v98c0 14 4 24 11 31s18 10 33 10c6 0 12 0 20-1 7-1 14-3 22-5v29zm185 3l-1-26c-10 10-21 18-32 22-11 5-22 7-34 7-11 0-20-1-28-4s-14-7-19-12c-5-4-9-10-11-17-3-7-4-14-4-21 0-20 7-35 22-46 14-11 35-16 63-16h40v-17c0-12-3-21-11-28-7-6-18-10-33-10-11 0-22 1-32 4-11 2-22 6-33 10V87c4-1 9-3 14-4 5-2 11-3 17-4 5-1 11-2 18-3 6-1 12-1 18-1 12 0 23 1 32 4 9 2 17 6 24 11 6 6 11 12 14 20 4 8 6 17 6 28v133h-30zm-4-88h-42c-8 0-16 1-22 3-6 1-11 4-14 7-4 3-7 7-9 11s-3 9-3 14c0 4 1 8 2 11s3 6 6 9c2 3 5 5 10 6 4 2 9 2 15 2 7 0 16-2 26-7 10-4 20-12 31-22v-34z" fill="#fff"/><path d="M932 36h-55V0h103v234h56v37H870v-37h62V36zm755 276c10 0 18 9 18 19s-8 18-18 18h-179c-10 0-18-8-18-18s8-19 18-19h179zm-480-41l-1-26c-4 5-9 9-13 12-5 4-10 7-15 10-5 2-11 4-18 6-6 1-13 2-20 2-10 0-19-1-27-4-7-3-13-7-19-13-5-5-9-11-11-18-3-8-4-16-4-25s2-18 6-25c4-8 10-15 18-21 8-5 18-10 29-13 12-3 26-5 43-5h25v-11c0-5-1-10-2-14s-4-7-7-10-7-5-12-7c-5-1-11-2-18-2-12 0-23 1-34 4-12 3-22 6-33 11V85c10-4 20-7 32-10 13-2 25-3 38-3 15 0 27 1 38 4 10 3 18 7 25 12 7 6 12 13 15 21s5 18 5 29v133h-40zm-7-86h-29c-7 0-14 1-20 2-5 2-10 4-13 6-4 3-6 6-8 10-1 3-2 7-2 11 0 8 2 14 8 18 5 4 12 6 21 6 6 0 13-2 20-7s15-11 23-20v-26zm276-15c0 18-3 33-8 46s-12 24-21 33c-9 8-20 15-32 19s-26 6-40 6-27-1-40-3c-12-2-23-5-34-8V0h46v64l-2 38c7-9 16-16 25-22 9-5 21-8 34-8 11 0 21 2 30 7 9 4 17 11 23 19 6 9 11 19 14 31s5 26 5 41zm-50 2c0-11 0-20-2-28-1-7-4-13-6-18-3-5-7-9-11-11s-9-3-14-3c-8 0-16 3-23 9-7 7-15 16-23 26v86c4 1 8 2 14 3 5 1 11 1 16 1 8 0 15-1 21-4s11-8 15-13c4-6 8-13 10-21s3-17 3-27z" fill="#00cdff"/></g></g></svg>